<svg viewBox="531.9726 420.5043 388.5274 52.9911" width="245" height="33" xmlns="http://www.w3.org/2000/svg" xmlns:xlink="http://www.w3.org/1999/xlink" preserveAspectRatio="none"><defs></defs><style>.aa3AnMiNBtM0filter-floo {flood-color:#4654A3;flood-opacity:0.5;}.acCKHfvU7-0filter-floo {flood-color:#01AAC1;flood-opacity:0.5;}.aD6z1nYkhcolor {fill:#01AAC1;fill-opacity:1;}.aD6z1nYkhstrokeColor-str {stroke:#01AAC1;stroke-opacity:1;}.ajlOgHXTwbcolors-0 {fill:#01AAC1;fill-opacity:1;}</style><defs>
      <filter
        x="588.6807"
        y="420.5043"
        width="331.8193"
        height="52.9911"
        id="cCKHfvU7-"
        filterUnits="userSpaceOnUse"
        primitiveUnits="userSpaceOnUse"
        color-interpolation-filters="sRGB">
        <feMerge><feMergeNode in="SourceGraphic" /></feMerge>
      </filter>
      <filter
        x="531.9726"
        y="420.6469"
        width="52.991"
        height="52.7064"
        id="a3AnMiNBtM"
        filterUnits="userSpaceOnUse"
        primitiveUnits="userSpaceOnUse"
        color-interpolation-filters="sRGB">
        <feMerge><feMergeNode in="SourceGraphic" /></feMerge>
      </filter></defs><g opacity="1" transform="rotate(0 588.6807 420.5043)">
<svg width="331.8193" height="52.9911" x="588.6807" y="420.5043" version="1.1" preserveAspectRatio="none" viewBox="1.6602 -32.2461 262.4413 41.914">
  <g transform="matrix(1 0 0 1 0 0)" class="aD6z1nYkhcolor"><path id="id-D6z1nYkh10" d="M3.85-7.40L3.85-16.13L1.66-16.13L1.66-19.36L3.85-19.36L3.85-25.80L14.45-25.80L14.45-19.36L19.55-19.36L17.56-16.13L14.45-16.13L14.45-7.36Q14.45-5.37 15.34-4.30Q16.23-3.22 17.89-3.22L17.89-3.22L16.68-0.55Q15.66-0.12 14.52 0.13Q13.38 0.37 11.88 0.37L11.88 0.37Q9.77 0.37 8.24-0.17Q6.72-0.70 5.74-1.70Q4.77-2.70 4.31-4.14Q3.85-5.59 3.85-7.40L3.85-7.40Z M22.68 0L22.68-19.36L32.03-19.36L32.97-16.54Q34.08-17.36 35.07-17.96Q36.05-18.55 36.98-18.96Q37.91-19.36 38.78-19.54Q39.65-19.73 40.51-19.73L40.51-19.73Q41.76-19.73 42.76-19.38Q43.77-19.02 44.48-18.38Q45.20-17.73 45.58-16.85Q45.96-15.96 45.96-14.88L45.96-14.88Q45.96-13.81 45.50-12.91Q45.04-12.01 44.16-11.36Q43.28-10.70 42.00-10.34Q40.72-9.98 39.08-9.98L39.08-9.98L35.64-14.57Q35.08-14.57 34.41-14.34Q33.75-14.10 33.28-13.59L33.28-13.59L33.28 0L22.68 0Z M54.28-22.58L54.28-22.58Q52.83-22.58 51.79-22.89Q50.74-23.20 50.08-23.76Q49.41-24.32 49.10-25.05Q48.79-25.78 48.79-26.64L48.79-26.64Q48.79-27.48 49.10-28.22Q49.41-28.96 50.08-29.52Q50.74-30.08 51.79-30.39Q52.83-30.70 54.28-30.70L54.28-30.70Q55.74-30.70 56.78-30.39Q57.81-30.08 58.49-29.52Q59.16-28.96 59.47-28.22Q59.79-27.48 59.79-26.64L59.79-26.64Q59.79-25.78 59.47-25.05Q59.16-24.32 58.49-23.76Q57.81-23.20 56.78-22.89Q55.74-22.58 54.28-22.58ZM48.98 0L48.98-19.36L59.59-19.36L59.59 0L48.98 0Z M65.06 9.67L65.06-19.36L74.82-19.36L75.64-16.82Q76.19-17.34 76.95-17.87Q77.71-18.40 78.63-18.81Q79.55-19.22 80.62-19.47Q81.68-19.73 82.83-19.73L82.83-19.73Q85.04-19.73 86.97-19.08Q88.91-18.44 90.35-17.17Q91.80-15.90 92.63-14.02Q93.46-12.15 93.46-9.67L93.46-9.67Q93.46-7.38 92.67-5.54Q91.88-3.69 90.39-2.37Q88.91-1.05 86.79-0.34Q84.67 0.37 82.03 0.37L82.03 0.37Q80.02 0.37 78.41-0.11Q76.80-0.59 75.66-1.45L75.66-1.45L75.66 9.67L65.06 9.67ZM75.66-14.61L75.66-4.00Q76.15-3.55 76.76-3.30Q77.36-3.05 77.97-3.05L77.97-3.05Q78.95-3.05 79.78-3.41Q80.61-3.77 81.22-4.53Q81.84-5.29 82.18-6.47Q82.52-7.66 82.52-9.32L82.52-9.32Q82.52-11.00 82.20-12.19Q81.88-13.38 81.31-14.13Q80.74-14.88 79.96-15.23Q79.18-15.59 78.24-15.59L78.24-15.59Q77.50-15.59 76.84-15.32Q76.17-15.06 75.66-14.61L75.66-14.61Z M102.38-0.02L94.98-19.36L106.07-19.36L110.41-6.74L113.24-14.63L111.45-19.36L122.54-19.36L126.68-7.30L130.78-19.36L135.08-19.36L128.24 0L124.18 0L124.18-0.02L118.85-0.02L115.39-9.02L112.03 0L107.97 0L107.97-0.02L102.38-0.02Z M143.40-22.58L143.40-22.58Q141.95-22.58 140.91-22.89Q139.86-23.20 139.20-23.76Q138.54-24.32 138.22-25.05Q137.91-25.78 137.91-26.64L137.91-26.64Q137.91-27.48 138.22-28.22Q138.54-28.96 139.20-29.52Q139.86-30.08 140.91-30.39Q141.95-30.70 143.40-30.70L143.40-30.70Q144.86-30.70 145.90-30.39Q146.93-30.08 147.61-29.52Q148.28-28.96 148.59-28.22Q148.91-27.48 148.91-26.64L148.91-26.64Q148.91-25.78 148.59-25.05Q148.28-24.32 147.61-23.76Q146.93-23.20 145.90-22.89Q144.86-22.58 143.40-22.58ZM138.11 0L138.11-19.36L148.71-19.36L148.71 0L138.11 0Z M152.81 0.02L163.01-16.15L154.26-16.15L154.26-19.36L176.15-19.36L166.70-3.20L175.39-3.20L175.39 0.02L152.81 0.02Z M178.98-6.09L178.98-6.09Q178.98-7.50 179.61-8.71Q180.23-9.92 181.41-10.82Q182.58-11.72 184.24-12.24Q185.90-12.75 187.95-12.75L187.95-12.75Q190-12.75 191.79-12.28Q193.57-11.80 194.79-11.05L194.79-11.05L194.79-11.21Q194.79-12.58 194.48-13.54Q194.18-14.49 193.55-15.10Q192.93-15.70 191.96-15.98Q191.00-16.25 189.69-16.25L189.69-16.25Q188.50-16.25 187.23-16.04Q185.96-15.84 184.88-15.45L184.88-15.45L183.46-18.09Q185.59-18.96 187.86-19.35Q190.14-19.73 192.56-19.73L192.56-19.73Q195.66-19.73 198.06-19.13Q200.45-18.54 202.08-17.35Q203.71-16.17 204.55-14.38Q205.39-12.60 205.39-10.20L205.39-10.20L205.39 0L195.49 0L194.82-1.88Q194.24-1.43 193.44-1.02Q192.64-0.61 191.68-0.29Q190.72 0.02 189.65 0.20Q188.57 0.37 187.40 0.37L187.40 0.37Q185.49 0.37 183.94-0.13Q182.38-0.63 181.29-1.48Q180.20-2.34 179.59-3.53Q178.98-4.71 178.98-6.09ZM189.92-6.50L189.92-6.50Q189.92-5.45 190.61-4.79Q191.29-4.14 192.44-4.14L192.44-4.14Q193.07-4.14 193.67-4.35Q194.28-4.55 194.79-4.96L194.79-4.96L194.79-8.26Q193.81-8.85 192.64-8.85L192.64-8.85Q191.31-8.85 190.62-8.19Q189.92-7.54 189.92-6.50Z M210.66 0L210.66-19.36L220.02-19.36L220.96-16.54Q222.07-17.36 223.06-17.96Q224.04-18.55 224.97-18.96Q225.90-19.36 226.77-19.54Q227.64-19.73 228.50-19.73L228.50-19.73Q229.75-19.73 230.75-19.38Q231.76-19.02 232.47-18.38Q233.18-17.73 233.56-16.85Q233.95-15.96 233.95-14.88L233.95-14.88Q233.95-13.81 233.49-12.91Q233.03-12.01 232.15-11.36Q231.27-10.70 229.99-10.34Q228.71-9.98 227.07-9.98L227.07-9.98L223.63-14.57Q223.07-14.57 222.40-14.34Q221.74-14.10 221.27-13.59L221.27-13.59L221.27 0L210.66 0Z M235.70-9.67L235.70-9.67Q235.70-11.95 236.49-13.81Q237.29-15.66 238.77-16.98Q240.25-18.30 242.37-19.01Q244.49-19.73 247.13-19.73L247.13-19.73Q249.14-19.73 250.74-19.25Q252.34-18.77 253.50-17.99L253.50-17.99L253.50-32.25L264.10-32.25L264.10 0L254.34 0L253.54-2.42Q252.99-1.89 252.23-1.39Q251.46-0.88 250.55-0.49Q249.63-0.10 248.56 0.14Q247.50 0.37 246.33 0.37L246.33 0.37Q244.12 0.37 242.19-0.27Q240.25-0.92 238.81-2.18Q237.36-3.44 236.53-5.32Q235.70-7.21 235.70-9.67ZM246.64-10.04L246.64-10.04Q246.64-8.36 246.96-7.17Q247.29-5.98 247.85-5.22Q248.42-4.47 249.20-4.12Q249.98-3.77 250.92-3.77L250.92-3.77Q251.66-3.77 252.31-4.03Q252.97-4.30 253.50-4.71L253.50-4.71L253.50-15.41Q253.01-15.84 252.39-16.07Q251.78-16.31 251.19-16.31L251.19-16.31Q250.21-16.31 249.38-15.95Q248.55-15.59 247.94-14.82Q247.32-14.06 246.98-12.88Q246.64-11.70 246.64-10.04Z"/></g>
</svg>
</g><g opacity="1" transform="rotate(0 531.9726 420.6469)">
<svg width="52.991" height="52.7064" x="531.9726" y="420.6469" version="1.1" preserveAspectRatio="none" viewBox="0 0.2700033187866211 99.9980010986328 99.46099853515624">
  <g transform="matrix(1 0 0 1 0 0)" class="ajlOgHXTwbcolors-0"><g><path style="" d="M14.9,50.207H0c0.165-2.395,8.79-4.102,9.151-6.406   c0.377-2.391-7.454-6.73-6.725-8.982c0.744-2.292,9.638-1.199,10.718-3.317c1.093-2.139-5.006-8.695-3.603-10.624   c1.412-1.937,9.529,1.847,11.217,0.158c1.692-1.689-2.092-9.808-0.155-11.218c1.927-1.403,8.483,4.694,10.622,3.603   c2.118-1.081,1.026-9.972,3.318-10.716c2.254-0.731,6.59,7.1,8.982,6.724c2.326-0.367,4.044-9.159,6.476-9.159   c2.432,0,4.146,8.792,6.476,9.159c2.39,0.376,6.729-7.455,8.979-6.723c2.293,0.745,1.203,9.635,3.318,10.716   c2.141,1.092,8.697-5.005,10.626-3.603c1.933,1.41-1.849,9.527-0.161,11.218c1.689,1.69,9.809-2.094,11.217-0.157   c1.406,1.927-4.692,8.484-3.601,10.624c1.081,2.118,9.975,1.025,10.718,3.317c0.729,2.252-7.1,6.591-6.723,8.981   c0.36,2.305,8.982,4.012,9.148,6.406H85.102c-0.039-19.354-15.736-35.032-35.1-35.032C30.637,15.175,14.938,30.853,14.9,50.207z    M50.002,19.638c-16.901,0-30.6,13.68-30.639,30.569h61.277C80.602,33.317,66.898,19.638,50.002,19.638z M1.464,56.655   l61.088,2.599L3.282,65.295c0.793,2.578,1.795,5.065,2.984,7.442l66.734,2.839L12.125,81.78   c8.951,10.956,22.566,17.951,37.816,17.951c10.133,0,19.542-3.087,27.34-8.37l-53.206-2.265L87,82.685   c3.266-3.807,5.955-8.12,7.936-12.809L37.41,67.428l60.237-6.14c0.514-2.369,0.855-4.803,1.012-7.287H1.224   C1.279,54.893,1.361,55.777,1.464,56.655z" fill-rule="evenodd" clip-rule="evenodd"></path></g></g>
</svg>
</g></svg>