<svg viewBox="314.4023 483 905.0077 101.9584" width="293" height="33" xmlns="http://www.w3.org/2000/svg" xmlns:xlink="http://www.w3.org/1999/xlink" preserveAspectRatio="none"><defs></defs><style>.aD6z1nYkhcolor {fill:#01AAC1;fill-opacity:1;}.aD6z1nYkhstrokeColor-str {stroke:#01AAC1;stroke-opacity:1;}.aLgOaV3zRcolors-0 {fill:#01AAC1;fill-opacity:1;}.aLgOaV3zRcolors-1 {fill:#FFFFFF;fill-opacity:1;}.aLgOaV3zRcolors-2 {fill:#00D200;fill-opacity:1;}.aLgOaV3zRcolors-3 {fill:#000000;fill-opacity:1;}.aLgOaV3zRcolors-4 {fill:#3B8AFF;fill-opacity:1;}.aLgOaV3zRcolors-5 {fill:#6FA9FF;fill-opacity:1;}.aLgOaV3zRcolors-6 {fill:#95BFFF;fill-opacity:1;}.aLgOaV3zRcolors-7 {fill:#B5D2FF;fill-opacity:1;}</style><g opacity="1" transform="rotate(0 449.4161 483)">
<svg width="769.9939" height="101.9584" x="449.4161" y="483" version="1.1" preserveAspectRatio="none" viewBox="2.8 -28.64 217.79999999999998 28.84">
  <g transform="matrix(1 0 0 1 0 0)" class="aD6z1nYkhcolor"><path id="id-D6z1nYkh8" d="M20.32 0L2.80 0L2.80-28.60L7.52-28.60L20.32-28.64Q28.08-28.64 32.36-25Q36.64-21.36 36.64-14.32L36.64-14.32Q36.64-7.28 32.36-3.64Q28.08 0 20.32 0L20.32 0ZM19.88-23.44L19.88-23.44L9.20-23.44L9.20-5.20L19.88-5.20Q24.92-5.20 27.52-7.40Q30.12-9.60 30.12-14.32L30.12-14.32Q30.12-19.08 27.52-21.26Q24.92-23.44 19.88-23.44Z M66.80 0.20L50.60 0.20Q45.24 0.20 42.24-2.46Q39.24-5.12 39.24-10.28L39.24-10.28Q39.24-15.48 42.24-18.14Q45.24-20.80 50.60-20.80L50.60-20.80L60.60-20.80Q64.12-20.80 65.98-19.14Q67.84-17.48 67.84-14.40L67.84-14.40Q67.84-8.12 60.60-8.12L60.60-8.12L45.48-8.12Q46.32-4.40 50.60-4.40L50.60-4.40L66.80-4.40L66.80 0.20ZM60.32-16.20L50.60-16.20Q46.48-16.20 45.52-12.72L45.52-12.72L60.32-12.72Q61.12-12.72 61.58-13.20Q62.04-13.68 62.04-14.52L62.04-14.52Q62.04-16.20 60.32-16.20L60.32-16.20Z M91.40 0.20L70.76 0.20L70.76-4.40L90.36-4.40Q92.04-4.40 92.04-6.28L92.04-6.28Q92.04-8.12 90.36-8.12L90.36-8.12L77.68-8.12Q74.12-8.12 72.28-9.74Q70.44-11.36 70.44-14.40L70.44-14.40Q70.44-17.48 72.30-19.14Q74.16-20.80 77.68-20.80L77.68-20.80L95.92-20.80L95.92-16.20L77.96-16.20Q76.24-16.20 76.24-14.52L76.24-14.52Q76.24-13.68 76.72-13.20Q77.20-12.72 77.96-12.72L77.96-12.72L91.40-12.72Q94.52-12.72 96.18-11.10Q97.84-9.48 97.84-6.40L97.84-6.40Q97.84-3.28 96.16-1.54Q94.48 0.20 91.40 0.20L91.40 0.20Z M120.68 0L111.96 0Q108.48 0 106.84-1.74Q105.20-3.48 105.20-6.32L105.20-6.32L105.20-16L99.24-16L99.24-20.60L105.20-20.60L105.20-26.92L111-26.92L111-20.60L119.56-20.60L119.56-16L111-16L111-7.04Q111-4.60 113.40-4.60L113.40-4.60L120.68-4.60L120.68 0Z M129.48 0L123.68 0L123.68-28.60L129.48-28.60L129.48 0Z M160.64 0.20L144.44 0.20Q139.08 0.20 136.08-2.46Q133.08-5.12 133.08-10.28L133.08-10.28Q133.08-15.48 136.08-18.14Q139.08-20.80 144.44-20.80L144.44-20.80L154.44-20.80Q157.96-20.80 159.82-19.14Q161.68-17.48 161.68-14.40L161.68-14.40Q161.68-8.12 154.44-8.12L154.44-8.12L139.32-8.12Q140.16-4.40 144.44-4.40L144.44-4.40L160.64-4.40L160.64 0.20ZM154.16-16.20L144.44-16.20Q140.32-16.20 139.36-12.72L139.36-12.72L154.16-12.72Q154.96-12.72 155.42-13.20Q155.88-13.68 155.88-14.52L155.88-14.52Q155.88-16.20 154.16-16.20L154.16-16.20Z M171.08 0L165.28 0L165.28-20.60L183.24-20.60Q186.76-20.60 188.38-18.86Q190-17.12 190-14.28L190-14.28L190 0L184.20 0L184.20-13.60Q184.20-16 181.80-16L181.80-16L171.08-16L171.08 0Z M214.16 0.20L193.52 0.20L193.52-4.40L213.12-4.40Q214.80-4.40 214.80-6.28L214.80-6.28Q214.80-8.12 213.12-8.12L213.12-8.12L200.44-8.12Q196.88-8.12 195.04-9.74Q193.20-11.36 193.20-14.40L193.20-14.40Q193.20-17.48 195.06-19.14Q196.92-20.80 200.44-20.80L200.44-20.80L218.68-20.80L218.68-16.20L200.72-16.20Q199-16.20 199-14.52L199-14.52Q199-13.68 199.48-13.20Q199.96-12.72 200.72-12.72L200.72-12.72L214.16-12.72Q217.28-12.72 218.94-11.10Q220.60-9.48 220.60-6.40L220.60-6.40Q220.60-3.28 218.92-1.54Q217.24 0.20 214.16 0.20L214.16 0.20Z"/></g>
</svg>
</g><g opacity="1" transform="rotate(0 314.4023 483)">
<svg width="101.8947" height="101.9584" x="314.4023" y="483" version="1.1" preserveAspectRatio="none" viewBox="20 20 159.89999389648438 160">
  <g transform="matrix(1 0 0 1 0 0)" ><g><path d="M134.1 149.7c-8.1.1-14.7-2.7-19.7-9.2-4.6-5.9-7.1-5.9-11.6 0-5 6.5-11.4 9.2-19.5 9.2-15.4-.1-30.8-.1-46.1 0 3.3 4.2 7 8 11 11.4h48.1c7 0 12.9-2.8 17.2-8.5.8-1.1 1.7-2.2 2.7-3.2 2.5-2.5 5.1-2.5 7.5 0 .9.9 1.8 1.9 2.5 3 4.6 6.1 10.9 8.7 18.3 8.7h7.2c4-3.4 7.7-7.3 11-11.4-9.4-.1-19-.1-28.6 0z" data-color="1" class="aLgOaV3zRcolors-0"></path><path d="M136.8 162.8c-4.3-5.6-6.9-5.5-11.2.1-5.1 6.7-11.7 9.5-20.1 9.5-13.3-.1-26.7-.1-40-.1 10.4 5 22.1 7.7 34.4 7.7 15.5 0 29.9-4.4 42.2-12-1.9-1.4-3.6-3.1-5.3-5.2z" data-color="1" class="aLgOaV3zRcolors-0"></path><path d="M111.1 47.8c5.9-.5 10.8-2.9 14.6-7.5 1.1-1.4 2.2-2.8 3.5-4 2.6-2.6 5.1-2.5 7.6.2.8.8 1.5 1.7 2.2 2.6 4.4 5.9 10.4 8.8 17.8 8.8h4c-6.7-7.7-14.7-14.2-23.8-18.9-4.8 5.3-10.8 7.6-18.2 7.6-22.5-.1-45.1-.1-67.6 0-4.4 3.4-8.4 7.2-12 11.4h67.1c1.6 0 3.2-.1 4.8-.2z" data-color="1" class="aLgOaV3zRcolors-0"></path><path d="M100 20c-10.2 0-19.9 1.9-28.9 5.4h57.8c-9.2-3.6-19-5.4-28.9-5.4z" data-color="1" class="aLgOaV3zRcolors-0"></path><path d="M72.9 138.4c7.7 0 14-3 18.7-9.3 4.4-5.9 6.9-5.9 11.5 0 5 6.6 11.6 9.3 19.7 9.3h47.5c2-3.6 3.7-7.4 5.1-11.3h-63.7c-8.3 0-15-2.8-20.1-9.5-4.3-5.7-7-5.7-11.2-.1-5.1 6.8-11.9 9.7-20.3 9.6-11.9-.1-23.7 0-35.6 0 1.4 3.9 3.1 7.7 5.1 11.3 14.5.1 28.9.1 43.3 0z" data-color="1" class="aLgOaV3zRcolors-0"></path><path d="M51.9 115.7c6.6-.1 12.1-2.9 16.2-8.2 1.1-1.4 2.2-2.8 3.5-3.9 2-1.8 4-1.8 6-.1.8.7 1.6 1.5 2.2 2.3 5.1 7.3 12.2 10.1 21 10 25.9-.1 51.8-.1 77.7-.1.8-3.7 1.2-7.5 1.4-11.4H101c-7.7 0-13.9-2.7-18.7-8.9-4.8-6.3-7.2-6.4-12.1-.1-4.9 6.3-11.2 9.1-19.1 9-10-.1-19.9 0-29.9 0H20c.2 3.8.7 7.6 1.4 11.4 10.2.1 20.3.2 30.5 0z" data-color="1" class="aLgOaV3zRcolors-0"></path><path d="M88.5 70.4c5.9-.5 10.8-3 14.6-7.5 1.2-1.4 2.3-2.9 3.6-4.2 2.3-2.2 4.6-2.2 6.9 0 .9.8 1.7 1.8 2.4 2.8 4.8 6.6 11.5 9.2 19.5 9.2 13-.1 25.9 0 38.9 0-1.6-3.9-3.4-7.7-5.6-11.4-6.8 0-13.6 0-20.3.1-9.2.2-16.5-2.7-22-10.3-3.4-4.7-6.6-4.6-10 0-5.3 7.3-12.5 10.3-21.5 10.2-21.3-.2-42.6-.1-64-.1-2.2 3.6-4 7.4-5.6 11.3h58.9c1.5.1 2.8 0 4.2-.1z" data-color="1" class="aLgOaV3zRcolors-0"></path><path d="M21.9 93.1c13.4 0 26.9-.1 40.3 0 8.1.1 14.7-2.8 19.7-9.3 4.5-5.8 7-5.8 11.5 0 4.9 6.4 11.2 9.3 19.2 9.2 22.4-.1 44.8 0 67.2 0-.3-3.8-.9-7.6-1.8-11.3-16.8 0-33.7-.2-50.5.1-10 .2-18.3-2.3-24-11l-.3-.3c-2.9-3.2-5.5-3.2-8.5-.1-.5.5-.9 1-1.3 1.6-5 7-11.9 9.8-20.4 9.7-17-.1-34 0-51 0-.9 3.7-1.5 7.5-1.8 11.2 0 .2 1.7.2 1.7.2z" data-color="1" class="aLgOaV3zRcolors-0"></path></g></g>
</svg>
</g></svg>